<?xml version="1.0" encoding="UTF-8"?> <svg xmlns="http://www.w3.org/2000/svg" width="1680" height="1120" viewBox="0 0 1680 1120" fill="none"> <rect width="1680" height="1120" fill="#EDEEFE"></rect> <path d="M1324.77 903.489H565.225C556.538 903.489 549.188 896.969 549.188 888.82V310.185C549.188 302.239 556.315 295.516 565.225 295.516H1324.77C1333.46 295.516 1340.81 302.036 1340.81 310.185V888.82C1340.81 896.969 1333.46 903.489 1324.77 903.489Z" fill="#FAFAFC"></path> <path fill-rule="evenodd" clip-rule="evenodd" d="M908.94 377.697H549.188V373.504H908.94V377.697Z" fill="#333333"></path> <path fill-rule="evenodd" clip-rule="evenodd" d="M566.506 296.967C558.827 296.967 552.661 302.806 552.661 309.699V890.144C552.661 897.206 559.01 902.876 566.506 902.876H1324.33C1331.82 902.876 1338.17 897.206 1338.17 890.144V309.699C1338.17 302.637 1331.82 296.967 1324.33 296.967H566.506ZM548.348 309.699C548.348 300.651 556.405 293 566.506 293H1324.33C1334.17 293 1342.49 300.41 1342.49 309.699V890.144C1342.49 899.433 1334.17 906.843 1324.33 906.843H566.506C556.667 906.843 548.348 899.433 548.348 890.144V309.699Z" fill="#333333"></path> <path d="M1310.5 681.128C1310.5 791.124 1221.72 880.256 1112.25 880.256C1002.78 880.256 914 791.124 914 681.128C914 571.132 1002.78 482 1112.25 482C1221.72 482 1310.5 571.132 1310.5 681.128Z" stroke="#333333" stroke-width="10"></path> <rect x="1291.38" y="820.501" width="213.581" height="52.4903" rx="26.2452" transform="rotate(45 1291.38 820.501)" fill="white" stroke="#333333" stroke-width="5"></rect> <path d="M1273.96 843.096L1253.43 822.565" stroke="#333333" stroke-width="5"></path> <path fill-rule="evenodd" clip-rule="evenodd" d="M617.591 326.795C612.794 326.795 608.906 330.869 608.906 335.893C608.906 340.918 612.794 344.991 617.591 344.991C622.387 344.991 626.275 340.918 626.275 335.893C626.275 330.869 622.387 326.795 617.591 326.795ZM604.723 335.893C604.723 328.448 610.484 322.413 617.591 322.413C624.697 322.413 630.459 328.448 630.459 335.893C630.459 343.339 624.697 349.374 617.591 349.374C610.484 349.374 604.723 343.339 604.723 335.893Z" fill="#333333"></path> <path fill-rule="evenodd" clip-rule="evenodd" d="M659.871 326.795C654.847 326.795 650.773 330.869 650.773 335.893C650.773 340.918 654.847 344.991 659.871 344.991C664.896 344.991 668.969 340.918 668.969 335.893C668.969 330.869 664.896 326.795 659.871 326.795ZM646.391 335.893C646.391 328.448 652.426 322.413 659.871 322.413C667.317 322.413 673.352 328.448 673.352 335.893C673.352 343.339 667.317 349.374 659.871 349.374C652.426 349.374 646.391 343.339 646.391 335.893Z" fill="#333333"></path> <path fill-rule="evenodd" clip-rule="evenodd" d="M703.991 326.795C698.966 326.795 694.893 330.869 694.893 335.893C694.893 340.918 698.966 344.991 703.991 344.991C709.015 344.991 713.089 340.918 713.089 335.893C713.089 330.869 709.015 326.795 703.991 326.795ZM690.51 335.893C690.51 328.448 696.545 322.413 703.991 322.413C711.436 322.413 717.471 328.448 717.471 335.893C717.471 343.339 711.436 349.374 703.991 349.374C696.545 349.374 690.51 343.339 690.51 335.893Z" fill="#333333"></path> <rect x="637.4" y="429.012" width="183.327" height="111.209" rx="9" stroke="#D7D7D7" stroke-width="2"></rect> <rect x="637.4" y="554.8" width="183.327" height="153.138" rx="9" stroke="#D7D7D7" stroke-width="2"></rect> <rect x="637.4" y="722.516" width="183.327" height="129.658" rx="9" stroke="#D7D7D7" stroke-width="2"></rect> <path d="M1057.27 662.417C1067.11 662.417 1076.73 659.523 1084.89 654.107C1093.07 648.691 1099.43 641.001 1103.19 632.002C1106.95 623.003 1107.93 613.094 1106.01 603.544C1104.09 593.993 1099.35 585.215 1092.39 578.324C1085.44 571.434 1076.57 566.748 1066.93 564.86C1057.29 562.958 1047.28 563.937 1038.2 567.671C1029.11 571.406 1021.35 577.718 1015.88 585.807C1010.41 593.911 1007.5 603.433 1007.5 613.163C1007.5 619.64 1008.8 626.035 1011.29 632.016C1013.79 637.997 1017.45 643.426 1022.07 648.002C1026.69 652.577 1032.17 656.201 1038.21 658.682C1044.28 661.149 1050.73 662.417 1057.27 662.417Z" fill="#CA5D4B"></path> <path fill-rule="evenodd" clip-rule="evenodd" d="M1037.46 565.886C1046.9 562.007 1057.29 560.99 1067.3 562.965C1077.32 564.927 1086.53 569.794 1093.75 576.953C1100.98 584.112 1105.91 593.235 1107.91 603.164C1109.91 613.093 1108.88 623.392 1104.97 632.745C1101.07 642.099 1094.46 650.09 1085.96 655.717C1077.48 661.343 1067.49 664.348 1057.27 664.348C1050.48 664.348 1043.78 663.032 1037.48 660.471L1037.48 660.468C1031.21 657.892 1025.51 654.128 1020.71 649.373C1015.91 644.619 1012.11 638.976 1009.51 632.761L1009.5 632.757C1006.92 626.544 1005.57 619.898 1005.57 613.163C1005.57 603.049 1008.6 593.151 1014.28 584.728L1014.28 584.727C1019.96 576.321 1028.03 569.765 1037.46 565.886ZM1066.41 567.469C1057.29 565.669 1047.82 566.595 1039.22 570.13C1030.62 573.666 1023.27 579.639 1018.1 587.292C1012.93 594.957 1010.18 603.963 1010.18 613.163C1010.18 619.286 1011.4 625.334 1013.76 630.995C1016.13 636.652 1019.59 641.788 1023.96 646.116C1028.32 650.443 1033.51 653.873 1039.23 656.222C1044.97 658.558 1051.08 659.758 1057.27 659.758C1066.59 659.758 1075.69 657.018 1083.41 651.893L1083.42 651.892C1091.16 646.767 1097.17 639.492 1100.72 630.981C1104.28 622.468 1105.21 613.097 1103.4 604.066C1101.58 595.036 1097.09 586.731 1090.51 580.211C1083.93 573.691 1075.54 569.257 1066.42 567.47L1066.41 567.469Z" fill="#CA5D4B"></path> <path fill-rule="evenodd" clip-rule="evenodd" d="M1042.03 597.352C1042.95 596.503 1044.39 596.556 1045.25 597.471L1057.72 610.809L1070.19 597.471C1071.05 596.556 1072.49 596.503 1073.41 597.352C1074.33 598.202 1074.38 599.632 1073.53 600.547L1060.83 614.131L1073.53 627.716C1074.38 628.63 1074.33 630.061 1073.41 630.91C1072.49 631.759 1071.05 631.707 1070.19 630.792L1057.72 617.453L1045.25 630.792C1044.39 631.707 1042.95 631.759 1042.03 630.91C1041.11 630.061 1041.06 628.63 1041.91 627.716L1054.61 614.131L1041.91 600.547C1041.06 599.632 1041.11 598.202 1042.03 597.352Z" fill="white"></path> <path d="M932.178 738.844H936.266V706.149L958.173 738.844H962.261V698.979H958.173V731.646L936.266 698.979H932.178V738.844Z" fill="#333333"></path> <path d="M982.459 739.674C985.405 739.674 987.928 739.01 990.028 737.681C992.146 736.352 993.766 734.507 994.89 732.144C996.032 729.763 996.603 727.004 996.603 723.867C996.603 720.785 996.041 718.062 994.917 715.7C993.812 713.319 992.201 711.464 990.083 710.136C987.984 708.788 985.442 708.115 982.459 708.115C979.549 708.115 977.035 708.779 974.917 710.108C972.818 711.418 971.197 713.255 970.055 715.617C968.913 717.979 968.342 720.729 968.342 723.867C968.342 726.949 968.895 729.68 970 732.061C971.123 734.442 972.735 736.306 974.834 737.653C976.952 739.001 979.494 739.674 982.459 739.674ZM982.459 735.771C979.236 735.771 976.796 734.691 975.138 732.532C973.481 730.354 972.652 727.466 972.652 723.867C972.652 720.379 973.453 717.536 975.055 715.34C976.657 713.125 979.125 712.018 982.459 712.018C985.755 712.018 988.214 713.098 989.834 715.257C991.474 717.398 992.293 720.268 992.293 723.867C992.293 727.392 991.483 730.262 989.862 732.476C988.241 734.673 985.774 735.771 982.459 735.771Z" fill="#333333"></path> <path d="M1013.76 738.844H1017.82V723.922C1017.82 722.132 1018.02 720.351 1018.43 718.579C1018.85 716.789 1019.81 715.303 1021.3 714.122C1022.39 713.236 1023.56 712.729 1024.83 712.599C1026.12 712.452 1027.32 712.507 1028.43 712.765V708.945C1027.12 708.613 1025.64 708.604 1023.98 708.917C1022.32 709.213 1020.9 709.877 1019.72 710.911C1018.84 711.575 1018.07 712.498 1017.4 713.679V708.945H1013.76V738.844Z" fill="#333333"></path> <path d="M1045.75 739.674C1048.64 739.674 1051.23 738.964 1053.51 737.543C1055.82 736.121 1057.56 734.101 1058.73 731.48L1054.95 730.013C1053.05 733.851 1049.93 735.771 1045.59 735.771C1042.6 735.771 1040.26 734.839 1038.57 732.975C1036.89 731.111 1035.97 728.462 1035.81 725.029H1059.32C1059.46 719.751 1058.31 715.617 1055.86 712.627C1053.43 709.619 1050.01 708.115 1045.59 708.115C1042.71 708.115 1040.22 708.761 1038.1 710.052C1036 711.344 1034.37 713.181 1033.21 715.562C1032.05 717.942 1031.47 720.766 1031.47 724.033C1031.47 727.189 1032.05 729.939 1033.21 732.283C1034.39 734.627 1036.05 736.444 1038.18 737.736C1040.34 739.028 1042.86 739.674 1045.75 739.674ZM1045.7 711.852C1051.31 711.852 1054.43 715.109 1055.06 721.624H1035.89C1036.2 718.468 1037.2 716.051 1038.87 714.371C1040.55 712.692 1042.82 711.852 1045.7 711.852Z" fill="#333333"></path> <path d="M1076.58 739.646C1080.24 739.646 1083.12 738.844 1085.2 737.238C1087.3 735.614 1088.35 733.39 1088.35 730.566C1088.35 729.016 1088.02 727.715 1087.35 726.663C1086.71 725.611 1085.59 724.697 1084.01 723.922C1082.44 723.147 1080.29 722.409 1077.55 721.707C1075.21 721.117 1073.4 720.572 1072.13 720.074C1070.88 719.576 1070.01 719.05 1069.53 718.496C1069.06 717.924 1068.82 717.241 1068.82 716.447C1068.82 715.026 1069.48 713.891 1070.8 713.042C1072.13 712.193 1073.85 711.787 1075.97 711.824C1078.22 711.861 1080.07 712.396 1081.52 713.43C1082.98 714.445 1083.85 715.829 1084.15 717.582L1088.29 716.835C1088.09 715.1 1087.44 713.578 1086.36 712.267C1085.27 710.957 1083.83 709.942 1082.05 709.222C1080.28 708.484 1078.27 708.115 1076.03 708.115C1073.78 708.115 1071.8 708.475 1070.09 709.194C1068.39 709.896 1067.07 710.892 1066.11 712.184C1065.17 713.458 1064.7 714.943 1064.7 716.641C1064.7 718.025 1065.01 719.207 1065.64 720.185C1066.28 721.144 1067.38 722.003 1068.93 722.759C1070.47 723.498 1072.59 724.236 1075.28 724.974C1077.8 725.657 1079.69 726.248 1080.94 726.746C1082.21 727.244 1083.06 727.789 1083.48 728.379C1083.91 728.951 1084.12 729.699 1084.12 730.622C1084.12 732.246 1083.47 733.538 1082.16 734.497C1080.85 735.457 1079.06 735.937 1076.8 735.937C1074.48 735.937 1072.53 735.439 1070.94 734.442C1069.36 733.427 1068.36 732.07 1067.93 730.372L1063.79 731.065C1064.3 733.759 1065.69 735.863 1067.93 737.376C1070.2 738.89 1073.08 739.646 1076.58 739.646Z" fill="#333333"></path> <path d="M1105.88 739.591C1108.02 739.591 1109.94 739.185 1111.66 738.373C1113.39 737.543 1114.81 736.315 1115.91 734.691V738.844H1119.56V708.945H1115.5V724.891C1115.5 728.268 1114.74 730.917 1113.23 732.836C1111.72 734.756 1109.53 735.715 1106.66 735.715C1104.57 735.715 1102.9 735.217 1101.63 734.22C1100.36 733.205 1099.44 731.83 1098.87 730.096C1098.29 728.361 1098.01 726.395 1098.01 724.199V708.945H1093.92V725.389C1093.92 727.069 1094.12 728.748 1094.53 730.428C1094.95 732.107 1095.62 733.639 1096.55 735.023C1097.47 736.407 1098.69 737.515 1100.22 738.345C1101.77 739.176 1103.65 739.591 1105.88 739.591Z" fill="#333333"></path> <path d="M1127.83 738.844H1131.89V698.148H1127.83V738.844Z" fill="#333333"></path> <path d="M1156.42 738.844V735.272C1154.28 735.623 1152.48 735.678 1151.03 735.439C1149.59 735.199 1148.54 734.46 1147.88 733.224C1147.53 732.578 1147.34 731.84 1147.3 731.009C1147.28 730.16 1147.27 729.108 1147.27 727.853V712.433H1156.42V708.945H1147.27V700.64H1143.24V708.945H1136.86V712.433H1143.24V728.019C1143.24 729.477 1143.26 730.778 1143.29 731.923C1143.35 733.067 1143.64 734.184 1144.18 735.272C1144.84 736.601 1145.81 737.579 1147.08 738.207C1148.37 738.834 1149.82 739.185 1151.44 739.259C1153.08 739.333 1154.74 739.194 1156.42 738.844Z" fill="#333333"></path> <path d="M1173.43 739.646C1177.09 739.646 1179.96 738.844 1182.05 737.238C1184.15 735.614 1185.2 733.39 1185.2 730.566C1185.2 729.016 1184.86 727.715 1184.2 726.663C1183.56 725.611 1182.44 724.697 1180.86 723.922C1179.29 723.147 1177.14 722.409 1174.39 721.707C1172.05 721.117 1170.25 720.572 1168.98 720.074C1167.73 719.576 1166.86 719.05 1166.38 718.496C1165.9 717.924 1165.66 717.241 1165.66 716.447C1165.66 715.026 1166.33 713.891 1167.65 713.042C1168.98 712.193 1170.7 711.787 1172.82 711.824C1175.07 711.861 1176.92 712.396 1178.37 713.43C1179.83 714.445 1180.7 715.829 1181 717.582L1185.14 716.835C1184.94 715.1 1184.29 713.578 1183.21 712.267C1182.12 710.957 1180.68 709.942 1178.9 709.222C1177.13 708.484 1175.12 708.115 1172.87 708.115C1170.63 708.115 1168.65 708.475 1166.94 709.194C1165.24 709.896 1163.91 710.892 1162.96 712.184C1162.02 713.458 1161.55 714.943 1161.55 716.641C1161.55 718.025 1161.86 719.207 1162.49 720.185C1163.13 721.144 1164.23 722.003 1165.77 722.759C1167.32 723.498 1169.44 724.236 1172.13 724.974C1174.65 725.657 1176.54 726.248 1177.79 726.746C1179.06 727.244 1179.91 727.789 1180.33 728.379C1180.76 728.951 1180.97 729.699 1180.97 730.622C1180.97 732.246 1180.31 733.538 1179.01 734.497C1177.7 735.457 1175.91 735.937 1173.65 735.937C1171.33 735.937 1169.38 735.439 1167.79 734.442C1166.21 733.427 1165.2 732.07 1164.78 730.372L1160.64 731.065C1161.15 733.759 1162.53 735.863 1164.78 737.376C1167.05 738.89 1169.93 739.646 1173.43 739.646Z" fill="#333333"></path> <rect x="908.939" y="332.413" width="631.454" height="81.3426" rx="40.6713" fill="#FAFAFC"></rect> <path fill-rule="evenodd" clip-rule="evenodd" d="M1500.18 335.436H949.15C928.587 335.436 911.918 352.353 911.918 373.222C911.918 394.09 928.587 411.007 949.15 411.007H1500.18C1520.75 411.007 1537.41 394.09 1537.41 373.222C1537.41 352.353 1520.75 335.436 1500.18 335.436ZM949.15 332.413C926.942 332.413 908.939 350.684 908.939 373.222C908.939 395.759 926.942 414.03 949.15 414.03H1500.18C1522.39 414.03 1540.39 395.759 1540.39 373.222C1540.39 350.684 1522.39 332.413 1500.18 332.413H949.15Z" fill="#333333"></path> <path fill-rule="evenodd" clip-rule="evenodd" d="M1151 397V349H1153V397H1151Z" fill="#333333"></path> <path d="M1484.54 385.314C1480.86 385.319 1477.27 384.234 1474.21 382.195C1471.15 380.157 1468.76 377.256 1467.35 373.861C1465.94 370.465 1465.57 366.728 1466.29 363.122C1467 359.516 1468.77 356.204 1471.37 353.604C1473.97 351.005 1477.29 349.235 1480.89 348.519C1484.5 347.804 1488.23 348.174 1491.63 349.583C1495.03 350.993 1497.93 353.378 1499.97 356.437C1502 359.496 1503.09 363.092 1503.08 366.768C1503.08 371.684 1501.12 376.397 1497.64 379.873C1494.17 383.349 1489.45 385.306 1484.54 385.314ZM1484.54 351.114C1481.44 351.108 1478.41 352.021 1475.83 353.738C1473.25 355.454 1471.24 357.897 1470.05 360.757C1468.86 363.617 1468.55 366.765 1469.15 369.804C1469.75 372.843 1471.24 375.635 1473.43 377.827C1475.62 380.019 1478.41 381.513 1481.44 382.119C1484.48 382.726 1487.63 382.417 1490.49 381.233C1493.35 380.049 1495.8 378.043 1497.52 375.468C1499.24 372.893 1500.16 369.865 1500.16 366.768C1500.16 362.621 1498.52 358.644 1495.59 355.709C1492.66 352.774 1488.68 351.121 1484.54 351.114Z" fill="#333333"></path> <path d="M1507.35 393.55C1506.96 393.549 1506.58 393.391 1506.3 393.112L1494.21 381.108C1494.07 380.972 1493.96 380.81 1493.89 380.633C1493.82 380.455 1493.78 380.264 1493.78 380.071C1493.78 379.879 1493.82 379.688 1493.89 379.51C1493.96 379.332 1494.07 379.171 1494.21 379.035C1494.34 378.899 1494.51 378.791 1494.68 378.717C1494.86 378.643 1495.05 378.605 1495.25 378.605C1495.44 378.605 1495.63 378.643 1495.81 378.717C1495.98 378.791 1496.15 378.899 1496.28 379.035L1508.37 391.038C1508.57 391.246 1508.7 391.506 1508.76 391.787C1508.81 392.068 1508.78 392.358 1508.67 392.623C1508.56 392.888 1508.38 393.116 1508.15 393.281C1507.91 393.445 1507.64 393.538 1507.35 393.55Z" fill="#333333"></path> <path d="M281.291 728.701C271.985 673.644 314.169 623.402 369.703 623.402H622.267L641.43 906.844H311.401L281.291 728.701Z" fill="#333333"></path> <path fill-rule="evenodd" clip-rule="evenodd" d="M618.27 626.636H369.701C316.813 626.636 276.639 674.26 285.501 726.45L315.006 900.2H636.852L618.27 626.636ZM622.26 622.361H369.701C314.169 622.361 271.985 672.367 281.291 727.166L311.4 904.474H641.422L622.26 622.361Z" fill="#333333"></path> <path d="M370.963 903.342H819.302C793.622 777.46 697.319 689.258 655.589 656.075C655.589 656.075 652.051 637.391 645.958 627.174C638.995 615.496 633.191 609.226 621.348 602.554C613.633 598.208 599.947 595.061 599.947 595.061C599.947 595.061 555.626 592.242 527.186 591.85C514.233 591.671 494.015 591.85 494.015 591.85C494.015 591.85 475.301 592.792 465.125 598.272C459.09 601.522 455.663 603.761 451.214 608.977C446.603 614.383 443.917 618.04 442.654 625.033C441.139 633.423 446.934 646.441 446.934 646.441C444.081 648.582 437.518 653.72 416.974 661.427C391.293 671.061 368.441 702.93 355.982 729.934C343.143 757.765 338.863 794.159 336.722 839.117C335.192 871.264 358.479 896.205 370.963 903.342Z" fill="#FAFAFC"></path> <path fill-rule="evenodd" clip-rule="evenodd" d="M492.268 592.08C492.16 589.941 492.159 589.941 492.159 589.941L492.142 589.942L492.097 589.944L491.929 589.954C491.783 589.963 491.57 589.976 491.298 589.995C490.752 590.032 489.966 590.091 488.992 590.18C487.046 590.357 484.344 590.651 481.316 591.12C475.33 592.047 467.802 593.694 462.374 596.62C456.216 599.939 452.539 602.329 447.856 607.824C443.167 613.326 440.186 617.338 438.821 624.897C437.969 629.62 439.173 635.389 440.445 639.736C441.094 641.959 441.792 643.906 442.327 645.298C442.42 645.541 442.508 645.767 442.591 645.975C439.231 648.425 432.077 653.085 414.505 659.683C401.18 664.685 388.765 675.377 378.174 688.066C367.56 700.784 358.64 715.674 352.346 729.327C339.319 757.588 335.038 794.38 332.899 839.354C332.105 856.032 338.281 871.01 346.158 882.662C354.018 894.291 363.705 902.805 370.268 906.56L370.764 906.844H819.525V903.281C793.823 777.192 697.86 688.794 655.724 655.147C655.719 655.125 655.715 655.103 655.71 655.081C655.599 654.539 655.435 653.756 655.218 652.786C654.786 650.848 654.145 648.156 653.311 645.138C651.657 639.157 649.189 631.694 645.989 626.322C638.869 614.372 632.814 607.809 620.601 600.923C616.53 598.627 610.993 596.699 606.583 595.361C604.357 594.685 602.377 594.148 600.952 593.779C600.239 593.595 599.665 593.452 599.266 593.355C599.067 593.307 598.912 593.27 598.806 593.245L598.683 593.216L598.651 593.208L598.642 593.206L598.639 593.206C598.639 593.206 598.638 593.205 598.159 595.293L598.639 593.206L598.468 593.166L598.295 593.155L598.159 595.293C598.295 593.155 598.295 593.155 598.295 593.155L597.788 593.123C597.456 593.103 596.965 593.072 596.331 593.033C595.062 592.955 593.219 592.843 590.918 592.708C586.316 592.437 579.884 592.072 572.563 591.695C557.928 590.94 539.712 590.136 525.455 589.939C518.962 589.849 510.657 589.849 503.984 589.871C500.646 589.883 497.712 589.899 495.614 589.913C494.564 589.92 493.723 589.927 493.145 589.931L492.25 589.938C492.25 589.938 492.249 589.938 492.268 592.08ZM492.334 594.221L492.33 594.222L492.181 594.23C492.048 594.238 491.849 594.25 491.59 594.268C491.073 594.304 490.318 594.361 489.379 594.446C487.5 594.617 484.889 594.901 481.97 595.353C476.059 596.268 469.148 597.834 464.402 600.391C458.496 603.575 455.321 605.664 451.111 610.605C446.581 615.92 444.193 619.225 443.032 625.659C442.369 629.33 443.304 634.269 444.551 638.533C445.16 640.615 445.816 642.448 446.32 643.761C446.572 644.416 446.784 644.938 446.933 645.294C447.007 645.472 447.065 645.608 447.104 645.698L447.147 645.797L447.157 645.82L447.159 645.824L447.853 647.384L446.488 648.409C446.424 648.458 446.357 648.508 446.289 648.559C443.182 650.896 436.294 656.077 416.007 663.693C403.661 668.329 391.819 678.398 381.457 690.813C371.119 703.2 362.39 717.76 356.231 731.122C343.588 758.548 339.312 794.577 337.172 839.558C336.436 855.041 342.168 869.116 349.701 880.261C357.047 891.129 365.98 899.022 371.906 902.557L814.799 901.573C788.511 777.77 693.782 690.905 652.447 658.01L651.825 657.515L651.677 656.732L651.675 656.722L651.668 656.685L651.638 656.535C651.612 656.4 651.572 656.2 651.519 655.94C651.412 655.42 651.253 654.663 651.043 653.72C650.622 651.834 649.998 649.214 649.187 646.281C647.551 640.362 645.205 633.367 642.315 628.517C635.514 617.102 629.965 611.119 618.501 604.655C614.86 602.602 609.7 600.782 605.342 599.46C603.185 598.805 601.263 598.284 599.882 597.926C599.191 597.748 598.637 597.61 598.257 597.518C598.081 597.475 597.943 597.442 597.845 597.419L597.521 597.399C597.19 597.378 596.701 597.348 596.069 597.309C594.803 597.231 592.963 597.119 590.667 596.984C586.073 596.714 579.652 596.349 572.343 595.973C557.718 595.219 539.568 594.417 525.396 594.222C518.941 594.133 510.667 594.133 503.998 594.155C500.666 594.166 497.737 594.183 495.642 594.197C494.594 594.204 493.755 594.21 493.178 594.215L492.334 594.221ZM492.268 592.08L492.25 589.938L492.204 589.939L492.159 589.941L492.268 592.08Z" fill="#333333"></path> <path fill-rule="evenodd" clip-rule="evenodd" d="M639.993 733.36C639.993 733.36 639.993 733.36 639.993 733.36L639.992 733.385L639.989 733.468C639.987 733.543 639.984 733.655 639.979 733.803C639.971 734.1 639.96 734.541 639.949 735.114C639.927 736.261 639.904 737.936 639.904 740.037C639.903 744.242 639.99 750.151 640.341 756.96C641.046 770.611 642.808 787.74 646.997 801.989C647.331 803.127 646.714 804.33 645.62 804.677C644.525 805.025 643.366 804.384 643.032 803.247C638.696 788.497 636.912 770.957 636.201 757.19C635.845 750.289 635.757 744.301 635.758 740.036C635.758 737.903 635.781 736.2 635.804 735.027C635.815 734.441 635.827 733.987 635.835 733.679C635.839 733.525 635.843 733.407 635.846 733.327L635.849 733.235L635.85 733.204C635.85 733.204 635.85 733.202 637.921 733.281L635.85 733.202C635.892 732.013 636.854 731.085 637.998 731.129C639.142 731.173 640.035 732.172 639.993 733.36Z" fill="#333333"></path> <path fill-rule="evenodd" clip-rule="evenodd" d="M536.317 669.642C535.611 668.728 534.31 668.543 533.38 669.223L534.634 670.95C533.38 669.223 533.38 669.223 533.38 669.223L533.375 669.227L533.367 669.233L533.342 669.252L533.25 669.32C533.17 669.38 533.052 669.469 532.894 669.592C532.576 669.837 532.093 670.215 531.414 670.761C530.058 671.851 527.92 673.611 524.766 676.308C522.671 678.1 520.633 677.873 517.444 677.518C517.133 677.483 516.81 677.447 516.475 677.412C514.709 677.225 512.64 677.092 510.483 677.664C508.268 678.251 506.129 679.53 504.086 681.875L504.079 681.884C503.367 682.71 501.952 684.815 500.124 687.654C498.252 690.564 495.843 694.409 493.092 698.858C487.589 707.758 480.698 719.105 473.958 730.274C467.218 741.444 460.626 752.443 455.719 760.648C453.266 764.751 451.233 768.156 449.814 770.535C449.105 771.724 448.549 772.658 448.17 773.293L447.59 774.267C447.59 774.268 447.589 774.268 449.417 775.364L447.59 774.267C446.987 775.28 447.316 776.593 448.326 777.198C449.335 777.803 450.642 777.472 451.245 776.459L449.417 775.364C451.245 776.459 451.245 776.46 451.245 776.459L451.825 775.486C452.203 774.851 452.759 773.918 453.468 772.729C454.886 770.352 456.918 766.948 459.37 762.847C464.275 754.645 470.864 743.651 477.601 732.487C484.338 721.322 491.219 709.991 496.71 701.111C499.456 696.67 501.85 692.85 503.702 689.973C505.594 687.033 506.823 685.233 507.296 684.683C508.836 682.917 510.26 682.143 511.57 681.796C512.94 681.433 514.36 681.485 516.028 681.661C516.342 681.695 516.67 681.734 517.009 681.776C520.023 682.142 523.951 682.62 527.529 679.561C530.656 676.886 532.76 675.154 534.077 674.096C534.152 674.035 534.225 673.977 534.295 673.921C534.908 674.66 535.721 675.617 536.71 676.735C539.085 679.418 542.485 683.035 546.585 686.769C554.351 693.842 564.92 701.607 575.971 703.925C576.006 704.265 576.038 704.674 576.06 705.155C576.145 707.008 576.08 709.929 575.433 714.03C574.693 718.72 576.917 722.027 578.692 724.667C578.891 724.965 579.086 725.253 579.269 725.535C580.229 727.005 580.991 728.342 581.378 729.857C581.752 731.324 581.804 733.087 581.099 735.412L581.096 735.42C580.994 735.763 580.918 736.234 580.854 736.673C580.783 737.163 580.705 737.786 580.62 738.523C580.45 739.998 580.243 741.994 579.994 744.42L579.916 745.182C579.424 749.965 578.77 756.319 577.905 763.741C576.081 779.391 573.317 799.756 569.155 820.043C564.986 840.36 559.44 860.468 552.094 875.666C544.682 891.001 535.844 900.515 525.46 901.334H372.768C371.592 901.334 370.639 902.291 370.639 903.471C370.639 904.651 371.592 905.607 372.768 905.607H525.541C525.594 905.607 525.646 905.605 525.699 905.602C538.626 904.636 548.432 893.034 555.925 877.531C563.503 861.853 569.134 841.335 573.326 820.905C577.523 800.447 580.303 779.945 582.135 764.238C583.003 756.787 583.659 750.409 584.151 745.626L584.23 744.859C584.48 742.426 584.684 740.458 584.851 739.014C584.934 738.291 585.006 737.716 585.068 737.288C585.131 736.853 585.169 736.676 585.175 736.651C585.175 736.648 585.176 736.647 585.175 736.648C586.089 733.629 586.083 731.071 585.503 728.797C584.935 726.57 583.844 724.746 582.832 723.194C582.638 722.897 582.449 722.61 582.265 722.333C580.432 719.558 579.173 717.652 579.639 714.698C580.328 710.33 580.413 707.12 580.314 704.958C580.264 703.878 580.169 703.061 580.08 702.495C580.036 702.212 579.994 701.991 579.96 701.832C579.943 701.752 579.928 701.688 579.916 701.639L579.9 701.576L579.894 701.553L579.892 701.544L579.891 701.54C579.89 701.539 579.89 701.536 577.836 702.1L579.89 701.536C579.669 700.729 579 700.125 578.177 699.991C567.86 698.311 557.447 690.89 549.447 683.605C545.487 679.998 542.195 676.496 539.894 673.897C538.744 672.598 537.844 671.527 537.234 670.784C536.929 670.412 536.697 670.123 536.543 669.929C536.465 669.831 536.407 669.758 536.37 669.709L536.328 669.656L536.319 669.644L536.317 669.642Z" fill="#333333"></path> <path fill-rule="evenodd" clip-rule="evenodd" d="M420.665 763.434L420.678 763.422L420.73 763.375C420.778 763.333 420.853 763.267 420.952 763.181C421.149 763.009 421.446 762.754 421.833 762.434C422.606 761.792 423.734 760.887 425.14 759.848C427.961 757.764 431.863 755.167 436.234 753.066C445.164 748.773 455.061 746.979 462.167 753.963C463.04 754.821 464.41 754.772 465.226 753.853C466.041 752.934 465.995 751.493 465.121 750.635C455.924 741.596 443.624 744.507 434.435 748.924C429.747 751.178 425.608 753.938 422.653 756.121C421.172 757.216 419.978 758.173 419.151 758.859C418.738 759.202 418.416 759.479 418.194 759.671C418.083 759.767 417.998 759.843 417.939 759.895L417.87 759.957L417.851 759.974L417.843 759.981C417.842 759.982 417.842 759.982 419.253 761.708L417.843 759.981C416.937 760.801 416.834 762.24 417.613 763.193C418.393 764.146 419.759 764.253 420.665 763.434C420.665 763.434 420.665 763.434 420.665 763.434Z" fill="#333333"></path> <path d="M506.019 605.366L505.469 613.447L479.406 639.104C507.671 654.62 546.212 660.137 568.567 681.276C587.772 662.647 600.088 639.81 604.035 615.511" fill="#FFD6CB"></path> <path fill-rule="evenodd" clip-rule="evenodd" d="M506.723 601.972C507.888 602.052 508.77 603.09 508.692 604.289L508.15 612.63C508.116 613.155 507.899 613.649 507.538 614.022L483.882 638.445C493.952 643.916 505.204 648.166 516.61 652.474C520.136 653.805 523.675 655.142 527.2 656.522C542.231 662.409 556.92 669.071 568.09 679.47C585.877 660.819 597.255 638.224 600.964 614.273C601.148 613.085 602.232 612.276 603.385 612.466C604.539 612.655 605.325 613.771 605.141 614.958C601.181 640.533 588.827 664.518 569.631 684.047C568.814 684.877 567.503 684.886 566.676 684.066C556.013 673.491 541.394 666.739 525.695 660.591C522.288 659.256 518.827 657.949 515.35 656.637C502.952 651.956 490.359 647.202 479.356 640.868C478.778 640.535 478.385 639.943 478.294 639.269C478.202 638.594 478.423 637.914 478.891 637.432L503.983 611.526L504.472 603.999C504.55 602.799 505.557 601.892 506.723 601.972Z" fill="#333333"></path> <path d="M652.401 654.084C652.846 656.693 653.191 659.094 653.523 661.2C657.372 685.584 649.136 701.775 643.689 713C658.312 702.896 668.171 683.68 673.147 669.026C667.136 664.323 658.932 658.836 652.401 654.084Z" fill="#333333"></path> <path d="M447.037 643.957C437.261 647.032 421.366 653.706 410.388 663.1C419.118 666.729 462.584 686.896 497.552 698.067C497.799 697.887 499.317 694.644 500.11 693.358C480.077 680.654 458.434 661.825 447.037 643.957Z" fill="#333333"></path> <path d="M479.963 546.701C479.963 546.701 457.862 552.981 466.807 572.766C473.025 586.502 484.828 581.619 491.867 577.455" fill="#FFD6CB"></path> <path fill-rule="evenodd" clip-rule="evenodd" d="M481.182 549.74C481.181 549.741 481.181 549.741 481.18 549.741L481.178 549.741L481.144 549.751C481.111 549.76 481.057 549.775 480.985 549.797C480.839 549.84 480.619 549.908 480.337 550.002C479.771 550.19 478.963 550.483 478.017 550.892C476.11 551.717 473.716 552.984 471.625 554.769C469.54 556.549 467.835 558.775 467.12 561.531C466.412 564.257 466.609 567.752 468.778 572.217C470.27 575.284 472.021 577.162 473.808 578.282C475.59 579.399 477.552 579.853 479.624 579.843C483.873 579.822 488.403 577.852 492.034 575.853C493.078 575.278 494.402 575.641 494.989 576.662C495.577 577.684 495.207 578.979 494.162 579.554C490.411 581.619 485.062 584.063 479.646 584.089C476.885 584.103 474.069 583.489 471.466 581.857C468.867 580.227 466.626 577.675 464.858 574.04L464.858 574.039C462.337 568.85 461.913 564.339 462.913 560.486C463.905 556.662 466.235 553.735 468.771 551.57C471.302 549.409 474.116 547.937 476.262 547.009C477.342 546.542 478.27 546.205 478.936 545.983C479.269 545.872 479.537 545.789 479.727 545.733C479.822 545.705 479.897 545.683 479.951 545.668L480.016 545.65L480.036 545.645L480.043 545.643L480.045 545.643C480.046 545.642 480.047 545.642 480.614 547.691L480.047 545.642C481.204 545.336 482.396 546.005 482.709 547.137C483.021 548.268 482.338 549.433 481.183 549.74C481.183 549.74 481.183 549.74 481.183 549.74L481.182 549.74Z" fill="#333333"></path> <path d="M607.726 562.935C609.17 635.76 557.006 644.906 531.292 635.45C489.117 622.327 486.462 578.568 475.673 535.699C483.771 489.096 527.656 463.679 561.36 468.971C595.065 474.263 606.324 492.284 607.726 562.935Z" fill="#FFD6CB"></path> <path fill-rule="evenodd" clip-rule="evenodd" d="M532.732 631.41L532.833 631.447C544.627 635.784 562.658 635.841 577.426 626.463C591.896 617.275 604.14 598.417 603.439 563.085C602.738 527.733 599.545 506.475 592.834 493.433C589.555 487.061 585.455 482.703 580.35 479.598C575.178 476.453 568.753 474.46 560.628 473.184C529.437 468.286 488.137 491.799 480.055 535.488C481.619 541.77 483.037 548.151 484.421 554.384C485.338 558.51 486.24 562.571 487.16 566.495C489.572 576.775 492.175 586.419 495.692 595.08C502.662 612.246 513.096 625.3 532.629 631.378L532.732 631.41ZM475.673 535.699C483.771 489.096 527.656 463.679 561.36 468.971C595.065 474.263 606.324 492.284 607.726 562.935C609.17 635.76 557.006 644.906 531.292 635.45C495.546 624.327 488.19 591.197 480.209 555.254C478.774 548.79 477.318 542.234 475.673 535.699Z" fill="#333333"></path> <path fill-rule="evenodd" clip-rule="evenodd" d="M548.821 597.894C547.509 598.706 547.205 599.507 547.205 599.951C547.205 600.396 547.509 601.196 548.821 602.009C550.088 602.792 551.978 603.35 554.183 603.35C556.389 603.35 558.279 602.792 559.545 602.009C560.858 601.196 561.162 600.396 561.162 599.951C561.162 599.507 560.858 598.706 559.545 597.894C558.279 597.11 556.389 596.552 554.183 596.552C551.978 596.552 550.088 597.11 548.821 597.894ZM546.599 593.997C548.646 592.731 551.333 592.02 554.183 592.02C557.034 592.02 559.721 592.731 561.768 593.997C563.768 595.235 565.513 597.267 565.513 599.951C565.513 602.635 563.768 604.667 561.768 605.905C559.721 607.172 557.034 607.882 554.183 607.882C551.333 607.882 548.646 607.172 546.599 605.905C544.599 604.667 542.854 602.635 542.854 599.951C542.854 597.267 544.599 595.235 546.599 593.997Z" fill="#333333"></path> <path fill-rule="evenodd" clip-rule="evenodd" d="M549.26 541.181C550.405 540.757 551.696 541.293 552.144 542.378L565.36 574.413C565.629 575.065 565.539 575.802 565.119 576.378C564.7 576.955 564.006 577.297 563.267 577.291L549.592 577.178C548.362 577.168 547.374 576.215 547.385 575.05C547.396 573.884 548.401 572.948 549.631 572.958L560.014 573.044L547.997 543.915C547.549 542.829 548.115 541.606 549.26 541.181Z" fill="#333333"></path> <path d="M588.321 531.852C587.669 531.756 587.047 531.484 586.554 531.078C586.38 530.95 575.798 522.686 562.807 524.106C561.741 524.256 560.59 523.891 559.808 523.157C559.025 522.422 558.734 521.434 559.05 520.58C559.366 519.726 560.237 519.143 561.323 519.059C577.435 517.289 589.934 527.199 590.47 527.622C591.466 528.427 591.809 529.617 591.322 530.577C590.834 531.537 589.626 532.05 588.321 531.852Z" fill="#333333"></path> <path d="M510.417 540.853C509.541 541.259 508.536 541.316 507.704 541.007C506.255 540.463 505.747 538.982 506.567 537.69C506.912 537.144 515.087 524.647 531.628 521.571C533.261 521.314 534.688 522.169 534.858 523.505C535.027 524.841 533.878 526.179 532.258 526.53C518.875 529.024 511.918 539.551 511.837 539.658C511.511 540.158 511.014 540.577 510.417 540.853Z" fill="#333333"></path> <path d="M529.825 558.031C535.103 558.031 535.115 546.701 529.825 546.701C524.535 546.701 524.535 558.031 529.825 558.031Z" fill="#333333"></path> <path d="M574.58 552.366C580.609 552.366 580.623 541.036 574.58 541.036C568.537 541.036 568.524 552.366 574.58 552.366Z" fill="#333333"></path> <path d="M458.609 552.864C458.609 552.864 449.543 537.332 444.176 519.793C439.119 503.305 445.855 485.307 460.917 476.885C473.531 469.809 483.465 474.162 483.465 474.162C483.465 474.162 468.245 451.568 487.669 429.648C491.069 425.812 495.219 422.711 499.864 420.532C504.51 418.354 509.553 417.145 514.685 416.979C539.992 416.208 549.118 437.051 549.118 437.051C549.118 437.051 573.14 385.865 630.38 411.877C636.149 414.503 642.959 422.379 646.318 427.751C666.66 460.322 608.748 503.81 577.518 508.849C543.228 514.378 522.68 509.884 511.058 502.132C519.622 506.585 510.413 557.717 458.609 552.864Z" fill="#333333"></path> <path d="M492.094 629.371L479.404 642.067C492.094 654.763 518.53 680.579 522.76 682.272C526.99 683.965 534.392 677.335 537.564 673.808C539.327 671.339 542.851 665.767 542.851 663.228C542.851 660.688 509.365 639.598 492.094 629.371Z" fill="white"></path> <path fill-rule="evenodd" clip-rule="evenodd" d="M491.73 625.976L493.177 626.809C502.051 631.915 515.08 639.727 525.899 646.584C531.304 650.01 536.185 653.215 539.725 655.731C541.489 656.985 542.962 658.098 544.01 658.999C544.528 659.444 544.996 659.883 545.352 660.294C545.529 660.498 545.72 660.743 545.878 661.018C546.014 661.255 546.251 661.727 546.251 662.334C546.251 663.37 545.903 664.489 545.51 665.467C545.098 666.495 544.544 667.588 543.954 668.638C542.775 670.738 541.371 672.812 540.43 674.094L540.359 674.191L540.277 674.279C538.572 676.121 535.734 678.775 532.705 680.775C531.194 681.774 529.549 682.666 527.913 683.188C526.298 683.702 524.438 683.933 522.691 683.254C521.825 682.917 520.699 682.143 519.55 681.278C518.321 680.353 516.82 679.131 515.13 677.696C511.746 674.825 507.523 671.036 503.045 666.921C494.087 658.685 484.048 649.084 477.538 642.754L476.006 641.264L491.73 625.976ZM492.415 631.27L482.137 641.263C488.605 647.529 497.779 656.28 506.023 663.858C510.485 667.96 514.66 671.704 517.98 674.521C519.642 675.932 521.07 677.093 522.203 677.946C523.415 678.858 524.084 679.257 524.301 679.341C524.722 679.505 525.435 679.542 526.563 679.183C527.669 678.831 528.937 678.17 530.27 677.289C532.884 675.563 535.42 673.213 536.974 671.548C537.837 670.364 539.101 668.487 540.15 666.619C540.689 665.658 541.151 664.736 541.472 663.936C541.665 663.457 541.781 663.082 541.846 662.805C541.681 662.638 541.449 662.422 541.14 662.156C540.242 661.385 538.896 660.363 537.167 659.133C533.721 656.683 528.917 653.527 523.532 650.114C513.343 643.657 501.171 636.34 492.415 631.27Z" fill="#333333"></path> <path d="M609.759 661.193C608.064 663.77 597.046 665.13 591.749 665.488C588.521 678.874 582.025 701.157 577.977 700.913V720.255L584.333 730.994L579.036 779.318C597.682 812.822 613.29 870.596 619.294 896.369H659.552L621.413 780.391C616.116 764.284 618.234 726.698 621.413 718.107C624.591 709.517 611.878 657.971 609.759 661.193Z" fill="white"></path> <path fill-rule="evenodd" clip-rule="evenodd" d="M609.554 665.332C609.004 665.639 608.396 665.906 607.768 666.142C606.255 666.711 604.419 667.174 602.542 667.549C599.438 668.171 596.037 668.588 593.412 668.821C591.788 675.568 589.493 684.07 587.097 691.073C585.81 694.838 584.463 698.26 583.142 700.759C582.487 701.997 581.782 703.119 581.026 703.951C580.748 704.257 580.396 704.597 579.976 704.888V722.743L586.444 733.962L581.106 783.965C599.502 818.265 614.861 875.981 621.135 903.24H657.028L619.559 786.242C616.766 777.522 615.982 763.306 616.249 750.376C616.384 743.862 616.787 737.582 617.363 732.353C617.93 727.194 618.684 722.858 619.585 720.358C619.83 719.677 619.999 718.247 619.952 715.97C619.906 713.781 619.67 711.071 619.284 708.016C618.512 701.913 617.16 694.593 615.635 687.625C614.11 680.655 612.426 674.096 611.001 669.512C610.457 667.759 609.966 666.349 609.554 665.332ZM624.218 715.874C624.266 718.199 624.135 720.377 623.58 721.917C622.881 723.859 622.168 727.711 621.602 732.858C621.044 737.935 620.647 744.077 620.515 750.472C620.249 763.358 621.066 776.902 623.607 784.838L662.949 907.682H617.76L617.372 905.972C611.326 879.316 595.662 819.86 577.051 785.521L576.713 784.896L582.043 734.962L575.709 723.973V701.002L577.698 701.125C577.752 701.078 577.828 701.006 577.926 700.899C578.32 700.465 578.821 699.72 579.403 698.618C580.557 696.434 581.813 693.278 583.077 689.584C585.595 682.223 588.023 673.082 589.639 666.201L590.01 664.621L591.57 664.513C594.178 664.332 598.194 663.897 601.737 663.188C603.514 662.832 605.105 662.421 606.319 661.965C606.926 661.737 607.387 661.516 607.709 661.317C607.994 661.142 608.083 661.039 608.083 661.039C608.407 660.542 609.095 659.877 610.159 659.919C611.033 659.953 611.611 660.467 611.842 660.698C612.345 661.2 612.728 661.919 613.009 662.513C613.629 663.821 614.33 665.792 615.062 668.145C616.537 672.895 618.254 679.59 619.796 686.639C621.338 693.689 622.72 701.152 623.515 707.436C623.912 710.576 624.168 713.461 624.218 715.874Z" fill="#333333"></path> <path d="M555.323 644.669C556.317 636.773 554.358 623.449 552.061 617.741C548.414 608.682 553.438 599.848 561.671 610.139C566.364 616.002 568.245 623.376 568.998 628.63" fill="#FFD6CB"></path> <path fill-rule="evenodd" clip-rule="evenodd" d="M553.004 611.382C552.932 612.994 553.239 614.942 554.047 616.948L554.047 616.948C555.294 620.047 556.386 625.011 557.048 630.113C557.411 632.909 557.654 635.822 557.713 638.576L566.739 627.991C565.925 623.007 564.087 616.577 560.002 611.475L560.002 611.474C558.06 609.047 556.536 608.052 555.562 607.757C554.773 607.517 554.359 607.713 554.01 608.105C553.537 608.637 553.078 609.725 553.004 611.382ZM563.342 608.808C561.168 606.09 558.976 604.33 556.807 603.671C554.452 602.956 552.295 603.605 550.814 605.268C549.459 606.791 548.831 608.967 548.732 611.192C548.63 613.463 549.063 616.016 550.079 618.54M563.343 608.809C568.382 615.105 570.34 622.918 571.116 628.33C571.203 628.936 571.025 629.551 570.628 630.017L556.953 646.055C556.34 646.774 555.327 647.006 554.462 646.625C553.597 646.244 553.085 645.342 553.203 644.405C553.668 640.713 553.449 635.611 552.807 630.661C552.164 625.701 551.129 621.149 550.079 618.54" fill="#333333"></path> <path d="M528.123 693.195L574.983 719.878L598.438 665.565C621.068 665.601 620.969 653.562 616.231 653.149C611.493 652.736 588.739 655.864 588.739 655.864C588.739 655.864 589.477 654.243 607.964 650.805C626.452 647.367 622.979 637.278 619.003 637.005C615.028 636.731 585.65 643.941 585.65 643.941L610.891 635.116C619.878 632.322 620.194 623.794 615.499 622.591C612.398 621.795 595.865 626.691 582.779 631.174C582.779 631.174 598.507 623.278 605.967 618.503C613.428 613.729 608.212 607.503 603.852 607.892C599.493 608.281 569.203 628.118 563.436 633.032C557.668 637.946 528.123 693.195 528.123 693.195Z" fill="#FFD6CB"></path> <path fill-rule="evenodd" clip-rule="evenodd" d="M610.656 614.464C609.974 616.271 608.571 617.907 606.483 619.302C605.375 620.042 604.09 620.851 602.705 621.692C605.362 620.948 607.782 620.341 609.768 619.946C610.879 619.725 611.89 619.564 612.75 619.487C613.545 619.415 614.44 619.392 615.194 619.593C618.966 620.602 620.248 624.548 619.486 627.948C618.937 630.399 617.377 632.793 614.808 634.573C614.962 634.549 615.112 634.525 615.258 634.503C616.394 634.332 617.488 634.207 618.237 634.261C620.097 634.394 621.597 635.667 622.431 637.184C623.297 638.758 623.586 640.794 622.951 642.887C622.026 645.935 619.317 648.725 614.373 650.72C614.826 650.721 615.226 650.735 615.562 650.766C617.746 650.965 619.263 652.582 619.768 654.526C620.271 656.459 619.817 658.684 618.439 660.673C615.799 664.481 609.827 667.51 599.361 667.743L576.935 721.955C576.698 722.526 576.232 722.966 575.656 723.162C575.079 723.358 574.447 723.291 573.922 722.979L528.04 695.705C527.064 695.126 526.708 693.867 527.231 692.847L529.104 693.844C527.231 692.847 527.23 692.847 527.231 692.847L527.558 692.208C527.772 691.793 528.086 691.182 528.488 690.404C529.291 688.848 530.444 686.62 531.846 683.931C534.649 678.553 538.446 671.328 542.422 663.944C546.395 656.563 550.554 649.008 554.079 642.975C555.841 639.96 557.456 637.305 558.817 635.235C560.125 633.246 561.34 631.571 562.291 630.726C565.243 628.1 574.193 621.697 582.83 615.962C587.173 613.078 591.493 610.325 595.009 608.262C596.764 607.233 598.346 606.359 599.644 605.723C600.293 605.406 600.896 605.135 601.432 604.932C601.932 604.743 602.51 604.559 603.062 604.508C606.183 604.217 609.348 606.313 610.575 609.254C611.223 610.809 611.348 612.63 610.656 614.464ZM531.915 693.02C532.013 692.831 532.117 692.627 532.229 692.411C533.03 690.859 534.181 688.636 535.579 685.953C538.377 680.585 542.165 673.379 546.128 666.017C550.093 658.652 554.224 651.148 557.711 645.18C559.456 642.194 561.028 639.613 562.329 637.634C563.684 635.573 564.608 634.384 565.07 633.974C567.764 631.577 576.467 625.331 585.138 619.573C589.448 616.71 593.696 614.005 597.118 611.997C598.832 610.992 600.311 610.177 601.474 609.608C602.057 609.323 602.533 609.113 602.904 608.972C603.247 608.842 603.411 608.807 603.442 608.801C603.448 608.799 603.449 608.799 603.446 608.799C604.593 608.693 606.117 609.58 606.684 610.941C606.933 611.537 606.982 612.197 606.71 612.917C606.429 613.663 605.73 614.652 604.166 615.697C600.596 618.082 594.991 621.281 590.227 623.91C587.855 625.218 585.71 626.375 584.158 627.205C583.383 627.619 582.755 627.952 582.323 628.181C582.106 628.296 581.938 628.384 581.825 628.444L581.654 628.534C580.666 629.051 580.239 630.261 580.678 631.301C581.117 632.342 582.271 632.858 583.32 632.484C589.698 630.203 596.903 627.822 602.875 626.116C605.866 625.262 608.513 624.586 610.577 624.176C611.612 623.97 612.464 623.839 613.12 623.78C613.447 623.751 613.701 623.742 613.889 623.746C614.057 623.75 614.127 623.764 614.127 623.764C614.95 623.988 615.807 625.015 615.364 626.989C614.952 628.83 613.298 631.195 609.505 632.426C609.481 632.434 609.457 632.442 609.433 632.451L584.719 641.472C583.658 641.859 583.081 643.027 583.409 644.127C583.737 645.226 584.853 645.87 585.947 645.59L585.431 643.5C585.947 645.59 585.946 645.59 585.947 645.59L586.268 645.508C586.479 645.454 586.788 645.376 587.184 645.275C587.976 645.075 589.112 644.789 590.488 644.446C593.241 643.761 596.949 642.851 600.776 641.95C604.607 641.048 608.542 640.159 611.752 639.514C613.36 639.192 614.766 638.934 615.877 638.766C617.06 638.588 617.716 638.544 617.94 638.56C618.026 638.566 618.411 638.687 618.743 639.291C619.045 639.84 619.204 640.654 618.912 641.613C618.34 643.5 615.685 646.691 606.884 648.399C597.799 650.163 592.978 651.478 590.394 652.381C589.106 652.831 588.302 653.203 587.779 653.516C587.515 653.675 587.282 653.843 587.083 654.03C586.982 654.126 586.881 654.236 586.786 654.362C586.739 654.426 586.692 654.495 586.648 654.569C586.626 654.607 586.604 654.646 586.584 654.686C586.573 654.706 586.563 654.727 586.553 654.748L586.538 654.78L586.531 654.796C586.527 654.804 586.524 654.812 588.455 655.687L586.524 654.812C586.212 655.528 586.305 656.36 586.768 656.985C587.231 657.61 587.989 657.93 588.75 657.821L588.998 657.786C589.161 657.763 589.402 657.729 589.71 657.686C590.325 657.599 591.211 657.476 592.288 657.33C594.443 657.038 597.363 656.653 600.425 656.281C603.49 655.909 606.684 655.552 609.392 655.315C612.171 655.071 614.244 654.973 615.186 655.058C615.323 655.071 615.557 655.15 615.682 655.63C615.81 656.122 615.773 657.051 614.986 658.186C613.411 660.459 608.77 663.465 597.956 663.447C597.105 663.446 596.336 663.965 596.005 664.765L573.974 718.021L531.915 693.02Z" fill="#333333"></path> <path d="M581 720.32C582.523 711.064 583.125 707.037 583.125 707.037C559.732 703.389 535.609 673.493 535.609 673.493C535.609 673.493 533.226 675.273 526.458 681.205C523.731 683.595 520.931 683.577 517.995 683.29C515.926 709.253 561.876 732.365 583.641 733.454C582.253 727.217 579.852 727.348 581 720.32Z" fill="#333333"></path> <path d="M858.055 731H612.958C611.397 730.996 609.88 731.52 608.655 732.488C607.43 733.456 606.569 734.811 606.213 736.331L573.012 876.882H511.362C511.362 876.882 505.795 905.71 538.343 905.71H572.795C573.436 905.899 574.102 905.996 574.771 906H819.995C821.555 905.998 823.068 905.471 824.292 904.504C825.515 903.537 826.378 902.186 826.74 900.669L864.818 739.522C865.056 738.503 865.06 737.444 864.831 736.423C864.602 735.402 864.145 734.447 863.495 733.627C862.845 732.808 862.018 732.146 861.076 731.691C860.134 731.236 859.101 731 858.055 731Z" fill="#333333"></path> <path d="M944.502 387H946.878V384.282C947.574 385.29 948.456 386.088 949.524 386.676C950.592 387.252 951.834 387.54 953.25 387.54C955.074 387.54 956.628 387.09 957.912 386.19C959.196 385.278 960.174 384.048 960.846 382.5C961.53 380.952 961.872 379.206 961.872 377.262C961.872 375.33 961.53 373.59 960.846 372.042C960.174 370.494 959.202 369.27 957.93 368.37C956.658 367.47 955.134 367.02 953.358 367.02C952.014 367.02 950.82 367.272 949.776 367.776C948.744 368.268 947.874 368.958 947.166 369.846V361.08H944.502V387ZM952.98 385.074C951.6 385.074 950.46 384.738 949.56 384.066C948.66 383.382 947.988 382.452 947.544 381.276C947.1 380.1 946.878 378.762 946.878 377.262C946.878 374.97 947.376 373.104 948.372 371.664C949.38 370.212 950.898 369.486 952.926 369.486C954.318 369.486 955.464 369.828 956.364 370.512C957.276 371.196 957.954 372.126 958.398 373.302C958.842 374.478 959.064 375.798 959.064 377.262C959.064 378.738 958.836 380.064 958.38 381.24C957.936 382.416 957.264 383.352 956.364 384.048C955.464 384.732 954.336 385.074 952.98 385.074ZM966.545 387H969.191V360.54H966.545V387ZM980.509 387.54C983.905 387.54 986.371 386.286 987.907 383.778V387H990.265V374.922C990.265 374.202 990.229 373.494 990.157 372.798C990.085 372.102 989.929 371.472 989.689 370.908C989.173 369.648 988.291 368.688 987.043 368.028C985.807 367.356 984.301 367.02 982.525 367.02C980.389 367.02 978.649 367.5 977.305 368.46C975.961 369.42 975.061 370.77 974.605 372.51L977.179 373.266C977.551 371.97 978.193 371.022 979.105 370.422C980.029 369.822 981.157 369.522 982.489 369.522C984.337 369.522 985.657 369.954 986.449 370.818C987.241 371.67 987.649 372.972 987.673 374.724C986.809 374.844 985.855 374.97 984.811 375.102C983.779 375.234 982.741 375.384 981.697 375.552C980.653 375.72 979.693 375.912 978.817 376.128C977.365 376.512 976.177 377.154 975.253 378.054C974.329 378.942 973.867 380.184 973.867 381.78C973.867 382.812 974.113 383.766 974.605 384.642C975.097 385.518 975.835 386.22 976.819 386.748C977.815 387.276 979.045 387.54 980.509 387.54ZM980.815 385.254C979.771 385.254 978.931 385.086 978.295 384.75C977.671 384.402 977.215 383.964 976.927 383.436C976.651 382.896 976.513 382.344 976.513 381.78C976.513 380.724 976.867 379.932 977.575 379.404C978.283 378.876 979.051 378.492 979.879 378.252C980.947 377.964 982.189 377.73 983.605 377.55C985.021 377.37 986.365 377.202 987.637 377.046C987.637 377.49 987.619 378 987.583 378.576C987.559 379.14 987.493 379.662 987.385 380.142C987.133 381.606 986.437 382.824 985.297 383.796C984.169 384.768 982.675 385.254 980.815 385.254ZM1003.37 387.54C1005.31 387.54 1006.96 387.09 1008.34 386.19C1009.73 385.278 1010.8 383.958 1011.53 382.23L1008.86 381.438C1007.88 383.814 1006.05 385.002 1003.37 385.002C1001.29 385.002 999.715 384.3 998.659 382.896C997.603 381.48 997.063 379.608 997.039 377.28C997.063 375.012 997.585 373.158 998.605 371.718C999.637 370.278 1001.23 369.558 1003.37 369.558C1004.65 369.558 1005.77 369.882 1006.76 370.53C1007.75 371.166 1008.48 372.066 1008.94 373.23L1011.53 372.402C1010.99 370.734 1009.99 369.42 1008.52 368.46C1007.07 367.5 1005.36 367.02 1003.39 367.02C1001.46 367.02 999.817 367.452 998.461 368.316C997.105 369.168 996.067 370.368 995.347 371.916C994.627 373.452 994.255 375.24 994.231 377.28C994.255 379.272 994.615 381.042 995.311 382.59C996.019 384.138 997.051 385.35 998.407 386.226C999.763 387.102 1001.42 387.54 1003.37 387.54ZM1015.59 387H1018.27V377.64L1027.81 387H1031.66L1021.36 377.28L1030.47 367.56H1026.94L1018.27 376.92V361.08H1015.6L1015.59 387ZM1051.97 387V384.678C1050.58 384.906 1049.41 384.942 1048.46 384.786C1047.53 384.63 1046.84 384.15 1046.41 383.346C1046.18 382.926 1046.06 382.446 1046.03 381.906C1046.02 381.354 1046.02 380.67 1046.02 379.854V369.828H1051.97V367.56H1046.02V362.16H1043.39V367.56H1039.23V369.828H1043.39V379.962C1043.39 380.91 1043.4 381.756 1043.42 382.5C1043.46 383.244 1043.65 383.97 1044 384.678C1044.43 385.542 1045.06 386.178 1045.89 386.586C1046.73 386.994 1047.68 387.222 1048.73 387.27C1049.8 387.318 1050.88 387.228 1051.97 387ZM1056.16 387H1058.81V377.298C1058.81 376.134 1058.94 374.976 1059.21 373.824C1059.48 372.66 1060.11 371.694 1061.08 370.926C1061.79 370.35 1062.55 370.02 1063.38 369.936C1064.22 369.84 1065 369.876 1065.72 370.044V367.56C1064.87 367.344 1063.9 367.338 1062.82 367.542C1061.74 367.734 1060.82 368.166 1060.05 368.838C1059.48 369.27 1058.97 369.87 1058.54 370.638V367.56H1056.16V387ZM1077.37 387.54C1079.26 387.54 1080.94 387.078 1082.43 386.154C1083.93 385.23 1085.06 383.916 1085.83 382.212L1083.37 381.258C1082.13 383.754 1080.1 385.002 1077.26 385.002C1075.32 385.002 1073.8 384.396 1072.69 383.184C1071.6 381.972 1071 380.25 1070.89 378.018H1086.21C1086.31 374.586 1085.56 371.898 1083.96 369.954C1082.38 367.998 1080.14 367.02 1077.26 367.02C1075.39 367.02 1073.77 367.44 1072.39 368.28C1071.02 369.12 1069.96 370.314 1069.2 371.862C1068.44 373.41 1068.07 375.246 1068.07 377.37C1068.07 379.422 1068.44 381.21 1069.2 382.734C1069.97 384.258 1071.05 385.44 1072.44 386.28C1073.84 387.12 1075.49 387.54 1077.37 387.54ZM1077.34 369.45C1081 369.45 1083.03 371.568 1083.44 375.804H1070.95C1071.15 373.752 1071.8 372.18 1072.89 371.088C1073.98 369.996 1075.46 369.45 1077.34 369.45ZM1090.02 387H1092.68V376.632C1092.68 374.436 1093.18 372.714 1094.16 371.466C1095.14 370.218 1096.57 369.594 1098.44 369.594C1099.8 369.594 1100.89 369.924 1101.72 370.584C1102.55 371.232 1103.15 372.12 1103.52 373.248C1103.89 374.376 1104.08 375.654 1104.08 377.082V387H1106.74V376.308C1106.74 375.216 1106.6 374.124 1106.33 373.032C1106.06 371.94 1105.63 370.944 1105.03 370.044C1104.43 369.144 1103.63 368.424 1102.64 367.884C1101.64 367.344 1100.41 367.074 1098.95 367.074C1097.56 367.074 1096.3 367.344 1095.17 367.884C1094.05 368.412 1093.13 369.204 1092.41 370.26V367.56H1090.02V387ZM1119.7 387.54C1121.63 387.54 1123.28 387.09 1124.66 386.19C1126.06 385.278 1127.12 383.958 1127.85 382.23L1125.19 381.438C1124.2 383.814 1122.37 385.002 1119.7 385.002C1117.61 385.002 1116.04 384.3 1114.98 382.896C1113.92 381.48 1113.38 379.608 1113.36 377.28C1113.38 375.012 1113.91 373.158 1114.93 371.718C1115.96 370.278 1117.55 369.558 1119.7 369.558C1120.97 369.558 1122.1 369.882 1123.08 370.53C1124.08 371.166 1124.8 372.066 1125.26 373.23L1127.85 372.402C1127.31 370.734 1126.31 369.42 1124.84 368.46C1123.39 367.5 1121.68 367.02 1119.71 367.02C1117.78 367.02 1116.14 367.452 1114.78 368.316C1113.43 369.168 1112.39 370.368 1111.67 371.916C1110.95 373.452 1110.58 375.24 1110.55 377.28C1110.58 379.272 1110.94 381.042 1111.63 382.59C1112.34 384.138 1113.37 385.35 1114.73 386.226C1116.08 387.102 1117.74 387.54 1119.7 387.54ZM1131.91 387H1134.57V376.632C1134.57 374.436 1135.06 372.714 1136.05 371.466C1137.03 370.218 1138.46 369.594 1140.33 369.594C1141.69 369.594 1142.78 369.924 1143.61 370.584C1144.44 371.232 1145.04 372.12 1145.41 373.248C1145.78 374.376 1145.97 375.654 1145.97 377.082V387H1148.63V376.308C1148.63 375.216 1148.49 374.124 1148.22 373.032C1147.95 371.94 1147.52 370.944 1146.92 370.044C1146.32 369.144 1145.52 368.424 1144.53 367.884C1143.53 367.344 1142.3 367.074 1140.84 367.074C1139.44 367.074 1138.18 367.344 1137.06 367.884C1135.94 368.412 1135.02 369.204 1134.3 370.26V361.08H1131.91V387Z" fill="black"></path> </svg> 